<?xml version="1.0" encoding="UTF-8" standalone="no"?><!DOCTYPE svg PUBLIC "-//W3C//DTD SVG 1.1//EN" "http://www.w3.org/Graphics/SVG/1.1/DTD/svg11.dtd"><svg width="100%" height="100%" viewBox="0 0 512 512" version="1.1" xmlns="http://www.w3.org/2000/svg" xmlns:xlink="http://www.w3.org/1999/xlink" xml:space="preserve" xmlns:serif="http://www.serif.com/" style="fill-rule:evenodd;clip-rule:evenodd;stroke-linejoin:round;stroke-miterlimit:2;"><path d="M463.754,375.688l-173.88,-287.19c-7.612,-12.579 -19.959,-19.791 -33.874,-19.791c-13.915,0 -26.262,7.212 -33.874,19.791l-173.879,287.19c-8.265,13.65 -8.907,30.361 -1.72,44.704c7.187,14.337 20.493,22.899 35.594,22.899l347.759,0c15.102,0 28.407,-8.563 35.594,-22.899c7.187,-14.343 6.546,-31.054 -1.72,-44.704Zm-207.77,12.643c-12.088,0 -21.884,-10.576 -21.884,-23.627c0,-13.045 9.796,-23.627 21.884,-23.627c12.083,0 21.879,10.582 21.879,23.627c0,13.05 -9.796,23.627 -21.879,23.627Zm28.995,-198.852l-10.772,109.543c-0.49,5.035 -2.706,9.459 -5.968,12.625c-3.262,3.167 -7.57,5.076 -12.255,5.076c-9.376,0 -17.237,-7.637 -18.228,-17.701l-10.772,-109.543c-0.113,-1.135 -0.167,-2.258 -0.167,-3.376c0,-17.137 12.902,-31.433 29.168,-31.433c17.323,0 30.829,16.211 28.995,34.809Z" style="fill:#1a9fff;fill-rule:nonzero;"/><path d="M498.502,351.164l-173.874,-287.19c-32.359,-53.448 -104.896,-53.448 -137.255,0l-173.874,287.19c-35.648,58.878 3.477,136.948 68.622,136.948l347.759,0c65.144,0 104.27,-78.069 68.622,-136.948Zm-16.902,78.64c-10.443,20.838 -29.777,33.278 -51.72,33.278l-347.759,0c-21.943,0 -41.277,-12.439 -51.72,-33.272c-10.438,-20.838 -9.505,-45.118 2.502,-64.949l173.88,-287.196c11.058,-18.266 29.001,-28.749 49.218,-28.749c20.218,0 38.16,10.483 49.218,28.749l173.88,287.196c12.006,19.831 12.939,44.111 2.501,64.943Z" style="fill:#1a9fff;fill-rule:nonzero;"/></svg>