<?xml version="1.0" encoding="UTF-8" standalone="no"?><!DOCTYPE svg PUBLIC "-//W3C//DTD SVG 1.1//EN" "http://www.w3.org/Graphics/SVG/1.1/DTD/svg11.dtd"><svg width="100%" height="100%" viewBox="0 0 512 512" version="1.1" xmlns="http://www.w3.org/2000/svg" xmlns:xlink="http://www.w3.org/1999/xlink" xml:space="preserve" xmlns:serif="http://www.serif.com/" style="fill-rule:evenodd;clip-rule:evenodd;stroke-linejoin:round;stroke-miterlimit:2;"><g><path d="M512,255.999c0,26.041 -32.608,46.611 -40.237,70.109c-7.908,24.354 6.107,60.109 -8.645,80.38c-14.9,20.474 -53.336,18.121 -73.81,33.022c-20.271,14.753 -29.828,52.115 -54.182,60.023c-23.498,7.63 -53.085,-16.731 -79.126,-16.731c-26.041,0 -55.628,24.361 -79.126,16.731c-24.354,-7.908 -33.911,-45.27 -54.183,-60.023c-20.474,-14.9 -58.909,-12.547 -73.81,-33.021c-14.753,-20.271 -0.738,-56.026 -8.645,-80.38c-7.63,-23.498 -40.237,-44.068 -40.237,-70.109c0,-26.041 32.608,-46.611 40.237,-70.109c7.908,-24.354 -6.107,-60.109 8.645,-80.38c14.9,-20.474 53.336,-18.121 73.81,-33.021c20.271,-14.753 29.828,-52.115 54.182,-60.023c23.498,-7.63 53.085,16.731 79.126,16.731c26.041,0 55.628,-24.361 79.126,-16.731c24.354,7.908 33.911,45.27 54.183,60.023c20.474,14.9 58.909,12.547 73.81,33.022c14.753,20.271 0.738,56.026 8.645,80.38c7.63,23.497 40.237,44.067 40.237,70.108Zm-287.476,112.133l143.985,-176.543c1.715,-2.103 2.525,-4.802 2.251,-7.502c-0.274,-2.7 -1.61,-5.181 -3.713,-6.896l-22.436,-18.298c-2.097,-1.711 -4.788,-2.518 -7.481,-2.244c-2.693,0.274 -5.166,1.605 -6.877,3.703l-117.844,144.492l-45.32,-41.184c-2.006,-1.823 -4.654,-2.774 -7.362,-2.645c-2.708,0.129 -5.253,1.329 -7.076,3.335l-19.439,21.392c-3.812,4.195 -3.501,10.685 0.693,14.497l75.918,68.991c2.063,1.875 4.806,2.819 7.587,2.612c2.78,-0.207 5.353,-1.549 7.115,-3.709Z" style="fill:#51ae40;"/></g></svg>