<svg width="16" height="16" viewBox="0 0 16 16" fill="none" xmlns="http://www.w3.org/2000/svg">
<path fill-rule="evenodd" clip-rule="evenodd" d="M13 15C14.0898 15 15 14.0898 15 13V9H13H9V11V13V15H13ZM13 13V11H11V13H13Z" fill="#FFFFFF"/>
<path fill-rule="evenodd" clip-rule="evenodd" d="M3 15C1.91016 15 1 14.0898 1 13V9H3H7V11V13V15H3ZM3 13V11H5V13H3Z" fill="#FFFFFF"/>
<path fill-rule="evenodd" clip-rule="evenodd" d="M13 1C14.0898 1 15 1.91016 15 3V7H13H9V5V3V1H13ZM13 3V5H11V3H13Z" fill="#FFFFFF"/>
<path fill-rule="evenodd" clip-rule="evenodd" d="M3 1C1.91016 1 1 1.91016 1 3V7H3H7V5V3V1H3ZM3 3V5H5V3H3Z" fill="#FFFFFF"/>
</svg>
