<svg width="16" height="16" viewBox="0 0 16 16" fill="none" xmlns="http://www.w3.org/2000/svg">
<g clip-path="url(#clip0_28_42)">
<path d="M4.033 5.01904H5.025V6.01904H6.017V7.01904H5.025V8.01904H4.033V7.01904H3.041V6.01904H4.033V5.01904ZM11.472 5.01904C11.746 5.01904 11.968 5.24304 11.968 5.51904C11.968 5.79504 11.746 6.01904 11.472 6.01904C11.197 6.01794 10.9749 5.79408 10.976 5.51904C10.976 5.24304 11.198 5.01904 11.472 5.01904ZM10.48 6.01904C10.754 6.01904 10.976 6.24304 10.976 6.51904C10.976 6.79504 10.754 7.01904 10.48 7.01904C10.205 7.01794 9.98289 6.79408 9.984 6.51904C9.984 6.24304 10.206 6.01904 10.48 6.01904ZM12.464 6.01904C12.738 6.01904 12.96 6.24304 12.96 6.51904C12.96 6.79504 12.738 7.01904 12.464 7.01904C12.189 7.01794 11.9669 6.79408 11.968 6.51904C11.968 6.24304 12.19 6.01904 12.464 6.01904ZM11.472 7.01904C11.746 7.01904 11.968 7.24304 11.968 7.51904C11.968 7.79504 11.746 8.01904 11.472 8.01904C11.197 8.01794 10.9749 7.79408 10.976 7.51904C10.976 7.24304 11.198 7.01904 11.472 7.01904Z" fill="#FFFFFF"/>
<path d="M4.0371 1.89264C3.69387 1.90051 3.35722 1.99255 3.05663 2.15826C1.79903 2.82198 0.953028 4.60576 0.451128 6.85356C0.235638 7.81231 0.0917984 8.92426 0.0312084 9.93946C-0.0293836 10.9548 -0.0184416 11.8475 0.132768 12.4707V12.4727C0.252508 12.9579 0.423668 13.3607 0.720658 13.6622C1.01765 13.9636 1.4409 14.1133 1.86906 14.1133H1.87688C2.54897 14.1018 3.18408 13.7528 3.76748 13.2461C4.35087 12.7395 4.88508 12.0555 5.30268 11.2695L5.27338 11.3203C5.67279 10.7454 6.82838 10.3549 7.98238 10.3926H8.01754C9.16994 10.3524 10.3289 10.7452 10.7284 11.3203L10.6972 11.2695C11.1147 12.0555 11.6491 12.7394 12.2324 13.2461C12.8157 13.7528 13.4512 14.1018 14.123 14.1133H14.1308C14.559 14.1133 14.982 13.9636 15.2792 13.6622C15.5764 13.3607 15.7458 12.9582 15.8651 12.4727H15.8671C16.019 11.8491 16.029 10.9548 15.9687 9.93946C15.9083 8.92416 15.7637 7.81216 15.5488 6.85356C15.0447 4.60476 14.2003 2.81916 12.9414 2.15626C12.303 1.8154 11.5839 1.81244 11.0527 2.18947V2.19142H11.0507C10.6863 2.45138 9.74837 2.82919 7.99987 2.83009C6.25317 2.83189 5.31447 2.45211 4.94907 2.19142L4.96274 2.20119C4.6998 1.99972 4.37602 1.89101 4.04477 1.8926L4.0371 1.89264ZM4.05468 2.89464C4.16298 2.8951 4.26747 2.92833 4.35351 2.99425L4.36132 3.00011L4.36718 3.00597C4.98991 3.45027 6.11298 3.83214 7.99998 3.83019C9.88598 3.82922 11.0069 3.45065 11.6309 3.00597C11.8811 2.82835 12.0427 2.80911 12.4727 3.03917L12.4747 3.04112C13.1601 3.40201 14.1034 4.97122 14.5743 7.07232C14.7737 7.96147 14.9135 9.03602 14.9708 10C15.0281 10.964 14.9902 11.8417 14.8946 12.2344C14.7992 12.6227 14.675 12.8509 14.5665 12.961C14.459 13.07 14.3637 13.1106 14.1348 13.1114C13.8269 13.1049 13.3601 12.9017 12.8887 12.4922C12.4159 12.0815 11.9435 11.4849 11.5801 10.8008L11.5665 10.7754L11.5489 10.7501C10.8209 9.70225 9.36798 9.35035 8.00008 9.39455C6.63298 9.35296 5.17968 9.70154 4.45128 10.7501L4.4337 10.7754L4.42003 10.8008C4.05662 11.4849 3.58437 12.0815 3.11143 12.4922C2.63998 12.9017 2.17195 13.1048 1.86343 13.1114C1.63652 13.1103 1.53882 13.0696 1.43179 12.961C1.32366 12.8512 1.20137 12.6226 1.10562 12.2364C1.01027 11.8434 0.971916 10.9641 1.02944 10.0001C1.08698 9.03607 1.22806 7.96137 1.42788 7.07237C1.89694 4.97157 2.83998 3.40207 3.52558 3.04117L3.53144 3.03726L3.53535 3.03531C3.69407 2.94702 3.87319 2.8998 4.05468 2.89464Z" fill="#FFFFFF"/>
</g>
<defs>
<clipPath id="clip0_28_42">
<rect width="16" height="16" fill="white"/>
</clipPath>
</defs>
</svg>
