<svg width="16" height="16" viewBox="0 0 16 16" fill="none" xmlns="http://www.w3.org/2000/svg">
<path fill-rule="evenodd" clip-rule="evenodd" d="M3.01953 1C1.92969 1 1.01953 1.91016 1.01953 3V7H3.01953H13.0195H15.0195V3C15.0195 1.91016 14.1094 1 13.0195 1H7.9949H3.01953ZM3.01953 3H7.9949H13.0195V5H3.01953V3Z" fill="#FFFFFF"/>
<path fill-rule="evenodd" clip-rule="evenodd" d="M13 15C14.0898 15 15 14.0898 15 13V9H13H9V11V13V15H13ZM13 13V11H11V13H13Z" fill="#FFFFFF"/>
<path fill-rule="evenodd" clip-rule="evenodd" d="M3 15C1.91016 15 1 14.0898 1 13V9H3H7V11V13V15H3ZM3 13V11H5V13H3Z" fill="#FFFFFF"/>
</svg>
