<svg width="16" height="16" viewBox="0 0 16 16" fill="none" xmlns="http://www.w3.org/2000/svg">
<path fill-rule="evenodd" clip-rule="evenodd" d="M1 12.9805C1 14.0703 1.91016 14.9805 3 14.9805H7V12.9805V2.98047V0.980469H3C1.91016 0.980469 1 1.89062 1 2.98047V8.0051V12.9805ZM3 12.9805V8.0051V2.98047H5V12.9805H3Z" fill="#222222"/>
<path fill-rule="evenodd" clip-rule="evenodd" d="M15 3C15 1.91016 14.0898 1 13 1H9V3V7H11H13H15V3ZM13 3H11V5H13V3Z" fill="#222222"/>
<path fill-rule="evenodd" clip-rule="evenodd" d="M15 13C15 14.0898 14.0898 15 13 15H9V13V9H11H13H15V13ZM13 13H11V11H13V13Z" fill="#222222"/>
</svg>
