<svg width="128" height="128" viewBox="0 0 128 128" fill="none" xmlns="http://www.w3.org/2000/svg">
<path d="M36.1089 11.8765H91.8903C99.2543 11.8765 105.849 15.1687 110.284 20.3615C113.89 24.5847 116.068 30.0649 116.068 36.0537V91.8352C116.068 105.188 105.243 116.012 91.8903 116.012H36.1089C30.1201 116.012 24.6398 113.835 20.4167 110.229C15.2238 105.794 11.9316 99.1991 11.9316 91.8352V36.0537C11.9316 22.701 22.7562 11.8765 36.1089 11.8765Z" fill="url(#paint0_linear_26_76)"/>
<path opacity="0.15" d="M11.9302 90.0294V91.8889C11.9302 105.283 22.7154 116.07 36.1112 116.07H91.8889C105.283 116.07 116.07 105.285 116.07 91.8889V90.0294C116.07 103.423 105.285 114.207 91.8889 114.207H36.1112C32.9341 114.214 29.7868 113.593 26.85 112.381C23.9133 111.168 21.2449 109.388 18.9981 107.141C16.7514 104.895 14.9704 102.227 13.7575 99.2903C12.5446 96.3538 11.9236 93.2066 11.9302 90.0294Z" fill="black"/>
<path opacity="0.15" d="M11.9302 37.9743V36.1148C11.9302 22.7208 22.7154 11.9338 36.1112 11.9338H91.8889C105.283 11.9338 116.07 22.719 116.07 36.1148V37.9743C116.07 24.5803 105.285 13.7971 91.8889 13.7971H36.1112C32.9341 13.79 29.7868 14.4104 26.85 15.6229C23.9133 16.8354 21.2449 18.6159 18.9981 20.8623C16.7514 23.1088 14.9704 25.7769 13.7575 28.7134C12.5446 31.65 11.9236 34.7972 11.9302 37.9743Z" fill="white"/>
<path d="M55.8984 82.9032L55.75 83.4257C53.3132 91.2976 45.1037 95.9598 37.0283 93.9022L36.2549 93.6825C28.6374 91.3236 24.0266 83.5583 25.6025 75.7411L25.7803 74.9598C27.8048 67.0182 35.5971 62.0775 43.5381 63.4647L55.8984 53.0585V82.9032ZM43.8037 67.3163C37.4581 65.6991 31.0024 69.5333 29.3848 75.8788C27.7676 82.2243 31.6 88.681 37.9453 90.2987C44.2907 91.9157 50.7474 88.0823 52.3652 81.7372C53.9826 75.3916 50.1491 68.9341 43.8037 67.3163ZM33.5215 77.0223C34.5805 72.8684 38.8069 70.36 42.9609 71.4188C47.1147 72.4777 49.6229 76.7025 48.5645 80.8563C47.5056 85.0101 43.2808 87.5201 39.127 86.4618C34.973 85.4029 32.4628 81.1763 33.5215 77.0223ZM61.4766 47.0272C65.3566 37.1521 76.0667 31.4773 86.6152 34.1649C98.0461 37.0785 104.953 48.7077 102.04 60.1385L101.742 61.1991C98.6695 71.1225 88.9046 77.3174 78.7451 76.0604L78.8125 76.162L61.4766 81.3427V47.0272ZM84.7793 41.3729C77.3295 39.4746 69.7511 43.9743 67.8516 51.4237C66.8612 55.3093 67.6139 59.2293 69.6152 62.3612L69.8994 62.788C71.7428 65.4522 74.5167 67.4902 77.9023 68.3534C85.3527 70.2521 92.933 65.751 94.832 58.3007C96.73 50.8507 92.2292 43.2719 84.7793 41.3729ZM71.8174 52.5585C73.1515 47.3247 78.4682 44.1613 83.6934 45.493C88.9186 46.8249 92.0733 52.1478 90.7393 57.3817C89.4051 62.6152 84.0882 65.7784 78.8633 64.4471C73.6381 63.1153 70.4834 57.7923 71.8174 52.5585Z" fill="white"/>
<path d="M64.0015 28.0229C64.0015 56.0793 64.0015 71.8094 64.0015 99.8658" stroke="white" stroke-width="5.57851" stroke-linecap="round"/>
<defs>
<linearGradient id="paint0_linear_26_76" x1="63.9996" y1="11.8765" x2="63.9996" y2="116.012" gradientUnits="userSpaceOnUse">
<stop stop-color="#3F73DB"/>
<stop offset="1" stop-color="#002163"/>
</linearGradient>
</defs>
</svg>
