<svg width="64" height="64" version="1.1" viewBox="0 0 16.933 16.933" xmlns="http://www.w3.org/2000/svg">
 <g transform="translate(0 -280.07)">
  <path d="m8.4665 282.18c-1.0118 0-1.8963 0.1755-2.6888 0.49125l-0.76779-1.3298-1.3298 0.76779 0.76779 1.3298c-0.49521 0.98522-0.78304 2.1129-0.78304 3.3032s0.28783 2.318 0.78304 3.3032l-0.76779 1.3298 1.3298 0.76779 0.76779-1.3298c0.79247 0.31575 1.677 0.49125 2.6888 0.49125s1.8963-0.1755 2.6888-0.49125l0.76779 1.3298 1.3298-0.76779-0.76779-1.3298c0.49521-0.98522 0.78304-2.1129 0.78304-3.3032s-0.28783-2.318-0.78304-3.3032l0.76779-1.3298-1.3298-0.76779-0.76779 1.3298c-0.79247-0.31575-1.677-0.49125-2.6888-0.49125zm0 2.6458c1.9392 0 3.5292 1.5899 3.5292 3.5292s-1.5899 3.5292-3.5292 3.5292-3.5292-1.5899-3.5292-3.5292 1.5899-3.5292 3.5292-3.5292z" fill="#fff"/>
 </g>
</svg>
