<svg width="64" height="64" version="1.1" viewBox="0 0 16.933 16.933" xmlns="http://www.w3.org/2000/svg">
 <g transform="translate(0 -280.07)">
  <path d="m8.4665 282.18c-3.2356 0-5.8624 2.6268-5.8624 5.8624s2.6268 5.8624 5.8624 5.8624 5.8624-2.6268 5.8624-5.8624-2.6268-5.8624-5.8624-5.8624zm-0.0423 1.5791c0.83539 0 1.5791 0.33451 2.1166 0.87189l-4.9604 4.9604c-0.53738-0.53738-0.87189-1.2812-0.87189-2.1166 0-1.6586 1.3414-3 3-3zm0.08466 0.001c1.6586 0 3 1.3414 3 3 0 0.83539-0.33451 1.5791-0.87189 2.1166l-4.9604-4.9604c0.53738-0.53738 1.2812-0.87189 2.1166-0.87189z" fill="#fff"/>
 </g>
</svg>
